<svg id="Tool-Kit--Streamline-Carbon" xmlns="http://www.w3.org/2000/svg" viewBox="0 0 16 16" height="16" width="16"><desc>Tool Kit Streamline Icon: https://streamlinehq.com</desc><defs></defs><path d="m4.45705 12.25 2.1285 -2.1284 -0.707 -0.70705L3.75 11.54295l-0.3965 -0.39645a0.4997 0.4997 0 0 0 -0.707 0l-2 2a0.4997 0.4997 0 0 0 0 0.707l1.5 1.5a0.49975 0.49975 0 0 0 0.707 0l2 -2a0.4997 0.4997 0 0 0 0 -0.707ZM2.5 14.29295 1.70705 13.5 3 12.20705 3.79295 13Z" fill="#000000" stroke-width="0.5"></path><path d="M12 15a3.00335 3.00335 0 0 1 -3 -3 2.92 2.92 0 0 1 0.10545 -0.77345l-4.332 -4.3319A2.92415 2.92415 0 0 1 4 7a2.98785 2.98785 0 0 1 -2.7886 -4.0918l0.27885 -0.71095L3.1465 3.8535a0.51165 0.51165 0 0 0 0.70675 0 0.4995 0.4995 0 0 0 0 -0.70705L2.1968 1.4895l0.71165 -0.27855A2.9886 2.9886 0 0 1 7 4a2.92 2.92 0 0 1 -0.10545 0.77345l4.332 4.33175A2.9274 2.9274 0 0 1 12 9a2.98775 2.98775 0 0 1 2.78855 4.0918l-0.27855 0.71095 -1.6565 -1.65625a0.51165 0.51165 0 0 0 -0.70675 0 0.4995 0.4995 0 0 0 -0.00025 0.70705l1.65625 1.65645 -0.71095 0.27895A2.98 2.98 0 0 1 12 15ZM5.03125 5.73815l5.23045 5.2306 -0.1196 0.3047a1.9877 1.9877 0 0 0 1.7329 2.72265l-0.43555 -0.43555a1.4996 1.4996 0 0 1 0 -2.1212 1.53605 1.53605 0 0 1 2.12135 0.00025l0.4353 0.4354a1.98795 1.98795 0 0 0 -2.7229 -1.7329l-0.3047 0.11925 -5.23 -5.23 0.1196 -0.3047a1.98775 1.98775 0 0 0 -1.73285 -2.72275l0.4353 0.43555a1.4996 1.4996 0 0 1 0 2.1212 1.53605 1.53605 0 0 1 -2.12135 -0.00025L2.0039 4.125a1.9875 1.9875 0 0 0 2.72265 1.7328Z" fill="#000000" stroke-width="0.5"></path><path d="M14.5613 1.425a1.5358 1.5358 0 0 0 -2.1211 0L8.7 5.165l0.70705 0.707 3.74 -3.74a0.5122 0.5122 0 0 1 0.70705 0 0.501 0.501 0 0 1 0 0.70725l-3.74 3.74 0.707 0.70705 3.74 -3.73975a1.50155 1.50155 0 0 0 0.0002 -2.12155Z" fill="#000000" stroke-width="0.5"></path><path id="_Transparent_Rectangle_" d="M0 0h16v16H0Z" fill="none" stroke-width="0.5"></path></svg>